<mxfile host="app.diagrams.net" modified="2020-12-16T03:36:10.492Z" agent="5.0 (Windows NT 10.0; Win64; x64) AppleWebKit/537.36 (KHTML, like Gecko) Chrome/87.0.4280.88 Safari/537.36" etag="OB7BVrvh7JaoFVQHPpEZ" version="14.0.1" type="github">
  <diagram id="9qwquoG6rhKUXt9aYglc" name="Page-1">
    <mxGraphModel dx="2370" dy="1270" grid="1" gridSize="10" guides="1" tooltips="1" connect="1" arrows="1" fold="1" page="1" pageScale="1" pageWidth="827" pageHeight="1169" math="0" shadow="0">
      <root>
        <mxCell id="0" />
        <mxCell id="1" parent="0" />
        <mxCell id="KGLhSe_-rWA2zhMxa89J-34" value="" style="group;strokeColor=#000000;" parent="1" vertex="1" connectable="0">
          <mxGeometry x="970" y="730" width="180" height="340" as="geometry" />
        </mxCell>
        <mxCell id="EEsGFowfR6Ov2jE1rLwt-202" value="" style="group" vertex="1" connectable="0" parent="KGLhSe_-rWA2zhMxa89J-34">
          <mxGeometry width="180" height="340" as="geometry" />
        </mxCell>
        <mxCell id="KGLhSe_-rWA2zhMxa89J-14" value="kullanıcılar" style="shape=table;startSize=30;container=1;collapsible=1;childLayout=tableLayout;fixedRows=1;rowLines=0;fontStyle=1;align=center;resizeLast=1;" parent="EEsGFowfR6Ov2jE1rLwt-202" vertex="1">
          <mxGeometry width="180" height="340" as="geometry" />
        </mxCell>
        <mxCell id="KGLhSe_-rWA2zhMxa89J-15" value="" style="shape=partialRectangle;collapsible=0;dropTarget=0;pointerEvents=0;fillColor=none;top=0;left=0;bottom=1;right=0;points=[[0,0.5],[1,0.5]];portConstraint=eastwest;" parent="KGLhSe_-rWA2zhMxa89J-14" vertex="1">
          <mxGeometry y="30" width="180" height="30" as="geometry" />
        </mxCell>
        <mxCell id="KGLhSe_-rWA2zhMxa89J-16" value="PK" style="shape=partialRectangle;connectable=0;fillColor=none;top=0;left=0;bottom=0;right=0;fontStyle=1;overflow=hidden;" parent="KGLhSe_-rWA2zhMxa89J-15" vertex="1">
          <mxGeometry width="30" height="30" as="geometry" />
        </mxCell>
        <mxCell id="KGLhSe_-rWA2zhMxa89J-17" value="kullanıcı_id" style="shape=partialRectangle;connectable=0;fillColor=none;top=0;left=0;bottom=0;right=0;align=left;spacingLeft=6;fontStyle=5;overflow=hidden;" parent="KGLhSe_-rWA2zhMxa89J-15" vertex="1">
          <mxGeometry x="30" width="150" height="30" as="geometry" />
        </mxCell>
        <mxCell id="KGLhSe_-rWA2zhMxa89J-18" value="" style="shape=partialRectangle;collapsible=0;dropTarget=0;pointerEvents=0;fillColor=none;top=0;left=0;bottom=0;right=0;points=[[0,0.5],[1,0.5]];portConstraint=eastwest;" parent="KGLhSe_-rWA2zhMxa89J-14" vertex="1">
          <mxGeometry y="60" width="180" height="30" as="geometry" />
        </mxCell>
        <mxCell id="KGLhSe_-rWA2zhMxa89J-19" value="" style="shape=partialRectangle;connectable=0;fillColor=none;top=0;left=0;bottom=0;right=0;editable=1;overflow=hidden;" parent="KGLhSe_-rWA2zhMxa89J-18" vertex="1">
          <mxGeometry width="30" height="30" as="geometry" />
        </mxCell>
        <mxCell id="KGLhSe_-rWA2zhMxa89J-20" value="kullanıcı_isim" style="shape=partialRectangle;connectable=0;fillColor=none;top=0;left=0;bottom=0;right=0;align=left;spacingLeft=6;overflow=hidden;" parent="KGLhSe_-rWA2zhMxa89J-18" vertex="1">
          <mxGeometry x="30" width="150" height="30" as="geometry" />
        </mxCell>
        <mxCell id="KGLhSe_-rWA2zhMxa89J-21" value="" style="shape=partialRectangle;collapsible=0;dropTarget=0;pointerEvents=0;fillColor=none;top=0;left=0;bottom=0;right=0;points=[[0,0.5],[1,0.5]];portConstraint=eastwest;" parent="KGLhSe_-rWA2zhMxa89J-14" vertex="1">
          <mxGeometry y="90" width="180" height="30" as="geometry" />
        </mxCell>
        <mxCell id="KGLhSe_-rWA2zhMxa89J-22" value="" style="shape=partialRectangle;connectable=0;fillColor=none;top=0;left=0;bottom=0;right=0;editable=1;overflow=hidden;" parent="KGLhSe_-rWA2zhMxa89J-21" vertex="1">
          <mxGeometry width="30" height="30" as="geometry" />
        </mxCell>
        <mxCell id="KGLhSe_-rWA2zhMxa89J-23" value="kullanıcı_Soyisim" style="shape=partialRectangle;connectable=0;fillColor=none;top=0;left=0;bottom=0;right=0;align=left;spacingLeft=6;overflow=hidden;" parent="KGLhSe_-rWA2zhMxa89J-21" vertex="1">
          <mxGeometry x="30" width="150" height="30" as="geometry" />
        </mxCell>
        <mxCell id="KGLhSe_-rWA2zhMxa89J-24" value="" style="shape=partialRectangle;collapsible=0;dropTarget=0;pointerEvents=0;fillColor=none;top=0;left=0;bottom=0;right=0;points=[[0,0.5],[1,0.5]];portConstraint=eastwest;" parent="KGLhSe_-rWA2zhMxa89J-14" vertex="1">
          <mxGeometry y="120" width="180" height="30" as="geometry" />
        </mxCell>
        <mxCell id="KGLhSe_-rWA2zhMxa89J-25" value="" style="shape=partialRectangle;connectable=0;fillColor=none;top=0;left=0;bottom=0;right=0;editable=1;overflow=hidden;" parent="KGLhSe_-rWA2zhMxa89J-24" vertex="1">
          <mxGeometry width="30" height="30" as="geometry" />
        </mxCell>
        <mxCell id="KGLhSe_-rWA2zhMxa89J-26" value="kullanıcı_Eposta" style="shape=partialRectangle;connectable=0;fillColor=none;top=0;left=0;bottom=0;right=0;align=left;spacingLeft=6;overflow=hidden;" parent="KGLhSe_-rWA2zhMxa89J-24" vertex="1">
          <mxGeometry x="30" width="150" height="30" as="geometry" />
        </mxCell>
        <mxCell id="KGLhSe_-rWA2zhMxa89J-27" value="kullanıcı_Sifre" style="shape=partialRectangle;connectable=0;fillColor=none;top=0;left=0;bottom=0;right=0;align=left;spacingLeft=6;overflow=hidden;" parent="EEsGFowfR6Ov2jE1rLwt-202" vertex="1">
          <mxGeometry x="30" y="150" width="150" height="30" as="geometry" />
        </mxCell>
        <mxCell id="KGLhSe_-rWA2zhMxa89J-28" value="kullanıcı_DogumGunu" style="shape=partialRectangle;connectable=0;fillColor=none;top=0;left=0;bottom=0;right=0;align=left;spacingLeft=6;overflow=hidden;" parent="EEsGFowfR6Ov2jE1rLwt-202" vertex="1">
          <mxGeometry x="30" y="180" width="150" height="30" as="geometry" />
        </mxCell>
        <mxCell id="KGLhSe_-rWA2zhMxa89J-29" value="kullanıcı_Tip" style="shape=partialRectangle;connectable=0;fillColor=none;top=0;left=0;bottom=0;right=0;align=left;spacingLeft=6;overflow=hidden;" parent="EEsGFowfR6Ov2jE1rLwt-202" vertex="1">
          <mxGeometry x="30" y="210" width="150" height="30" as="geometry" />
        </mxCell>
        <mxCell id="KGLhSe_-rWA2zhMxa89J-30" value="kullanıcı_UyelikTarihi" style="shape=partialRectangle;connectable=0;fillColor=none;top=0;left=0;bottom=0;right=0;align=left;spacingLeft=6;overflow=hidden;" parent="EEsGFowfR6Ov2jE1rLwt-202" vertex="1">
          <mxGeometry x="30" y="240" width="150" height="30" as="geometry" />
        </mxCell>
        <mxCell id="KGLhSe_-rWA2zhMxa89J-32" value="profilResimAdresi" style="shape=partialRectangle;connectable=0;fillColor=none;top=0;left=0;bottom=0;right=0;align=left;spacingLeft=6;overflow=hidden;" parent="EEsGFowfR6Ov2jE1rLwt-202" vertex="1">
          <mxGeometry x="30" y="270" width="150" height="30" as="geometry" />
        </mxCell>
        <mxCell id="KGLhSe_-rWA2zhMxa89J-36" value="Adresler" style="shape=table;startSize=30;container=1;collapsible=1;childLayout=tableLayout;fixedRows=1;rowLines=0;fontStyle=1;align=center;resizeLast=1;" parent="1" vertex="1">
          <mxGeometry x="710" y="210" width="180" height="160" as="geometry" />
        </mxCell>
        <mxCell id="KGLhSe_-rWA2zhMxa89J-37" value="" style="shape=partialRectangle;collapsible=0;dropTarget=0;pointerEvents=0;fillColor=none;top=0;left=0;bottom=1;right=0;points=[[0,0.5],[1,0.5]];portConstraint=eastwest;" parent="KGLhSe_-rWA2zhMxa89J-36" vertex="1">
          <mxGeometry y="30" width="180" height="30" as="geometry" />
        </mxCell>
        <mxCell id="KGLhSe_-rWA2zhMxa89J-38" value="PK" style="shape=partialRectangle;connectable=0;fillColor=none;top=0;left=0;bottom=0;right=0;fontStyle=1;overflow=hidden;" parent="KGLhSe_-rWA2zhMxa89J-37" vertex="1">
          <mxGeometry width="30" height="30" as="geometry" />
        </mxCell>
        <mxCell id="KGLhSe_-rWA2zhMxa89J-39" value="SehirId" style="shape=partialRectangle;connectable=0;fillColor=none;top=0;left=0;bottom=0;right=0;align=left;spacingLeft=6;fontStyle=5;overflow=hidden;" parent="KGLhSe_-rWA2zhMxa89J-37" vertex="1">
          <mxGeometry x="30" width="150" height="30" as="geometry" />
        </mxCell>
        <mxCell id="KGLhSe_-rWA2zhMxa89J-40" value="" style="shape=partialRectangle;collapsible=0;dropTarget=0;pointerEvents=0;fillColor=none;top=0;left=0;bottom=0;right=0;points=[[0,0.5],[1,0.5]];portConstraint=eastwest;" parent="KGLhSe_-rWA2zhMxa89J-36" vertex="1">
          <mxGeometry y="60" width="180" height="30" as="geometry" />
        </mxCell>
        <mxCell id="KGLhSe_-rWA2zhMxa89J-41" value="" style="shape=partialRectangle;connectable=0;fillColor=none;top=0;left=0;bottom=0;right=0;editable=1;overflow=hidden;" parent="KGLhSe_-rWA2zhMxa89J-40" vertex="1">
          <mxGeometry width="30" height="30" as="geometry" />
        </mxCell>
        <mxCell id="KGLhSe_-rWA2zhMxa89J-42" value="İlçe" style="shape=partialRectangle;connectable=0;fillColor=none;top=0;left=0;bottom=0;right=0;align=left;spacingLeft=6;overflow=hidden;" parent="KGLhSe_-rWA2zhMxa89J-40" vertex="1">
          <mxGeometry x="30" width="150" height="30" as="geometry" />
        </mxCell>
        <mxCell id="KGLhSe_-rWA2zhMxa89J-43" value="" style="shape=partialRectangle;collapsible=0;dropTarget=0;pointerEvents=0;fillColor=none;top=0;left=0;bottom=0;right=0;points=[[0,0.5],[1,0.5]];portConstraint=eastwest;" parent="KGLhSe_-rWA2zhMxa89J-36" vertex="1">
          <mxGeometry y="90" width="180" height="30" as="geometry" />
        </mxCell>
        <mxCell id="KGLhSe_-rWA2zhMxa89J-44" value="" style="shape=partialRectangle;connectable=0;fillColor=none;top=0;left=0;bottom=0;right=0;editable=1;overflow=hidden;" parent="KGLhSe_-rWA2zhMxa89J-43" vertex="1">
          <mxGeometry width="30" height="30" as="geometry" />
        </mxCell>
        <mxCell id="KGLhSe_-rWA2zhMxa89J-45" value="Mahalle" style="shape=partialRectangle;connectable=0;fillColor=none;top=0;left=0;bottom=0;right=0;align=left;spacingLeft=6;overflow=hidden;" parent="KGLhSe_-rWA2zhMxa89J-43" vertex="1">
          <mxGeometry x="30" width="150" height="30" as="geometry" />
        </mxCell>
        <mxCell id="KGLhSe_-rWA2zhMxa89J-46" value="" style="shape=partialRectangle;collapsible=0;dropTarget=0;pointerEvents=0;fillColor=none;top=0;left=0;bottom=0;right=0;points=[[0,0.5],[1,0.5]];portConstraint=eastwest;" parent="KGLhSe_-rWA2zhMxa89J-36" vertex="1">
          <mxGeometry y="120" width="180" height="30" as="geometry" />
        </mxCell>
        <mxCell id="KGLhSe_-rWA2zhMxa89J-47" value="" style="shape=partialRectangle;connectable=0;fillColor=none;top=0;left=0;bottom=0;right=0;editable=1;overflow=hidden;" parent="KGLhSe_-rWA2zhMxa89J-46" vertex="1">
          <mxGeometry width="30" height="30" as="geometry" />
        </mxCell>
        <mxCell id="KGLhSe_-rWA2zhMxa89J-48" value="Sokak" style="shape=partialRectangle;connectable=0;fillColor=none;top=0;left=0;bottom=0;right=0;align=left;spacingLeft=6;overflow=hidden;" parent="KGLhSe_-rWA2zhMxa89J-46" vertex="1">
          <mxGeometry x="30" width="150" height="30" as="geometry" />
        </mxCell>
        <mxCell id="EEsGFowfR6Ov2jE1rLwt-1" value="Sponsorlar" style="shape=table;startSize=30;container=1;collapsible=1;childLayout=tableLayout;fixedRows=1;rowLines=0;fontStyle=1;align=center;resizeLast=1;" vertex="1" parent="1">
          <mxGeometry x="440" y="650" width="180" height="160" as="geometry" />
        </mxCell>
        <mxCell id="EEsGFowfR6Ov2jE1rLwt-2" value="" style="shape=partialRectangle;collapsible=0;dropTarget=0;pointerEvents=0;fillColor=none;top=0;left=0;bottom=1;right=0;points=[[0,0.5],[1,0.5]];portConstraint=eastwest;" vertex="1" parent="EEsGFowfR6Ov2jE1rLwt-1">
          <mxGeometry y="30" width="180" height="30" as="geometry" />
        </mxCell>
        <mxCell id="EEsGFowfR6Ov2jE1rLwt-3" value="PK" style="shape=partialRectangle;connectable=0;fillColor=none;top=0;left=0;bottom=0;right=0;fontStyle=1;overflow=hidden;" vertex="1" parent="EEsGFowfR6Ov2jE1rLwt-2">
          <mxGeometry width="30" height="30" as="geometry" />
        </mxCell>
        <mxCell id="EEsGFowfR6Ov2jE1rLwt-4" value="Sponsor_id" style="shape=partialRectangle;connectable=0;fillColor=none;top=0;left=0;bottom=0;right=0;align=left;spacingLeft=6;fontStyle=5;overflow=hidden;" vertex="1" parent="EEsGFowfR6Ov2jE1rLwt-2">
          <mxGeometry x="30" width="150" height="30" as="geometry" />
        </mxCell>
        <mxCell id="EEsGFowfR6Ov2jE1rLwt-5" value="" style="shape=partialRectangle;collapsible=0;dropTarget=0;pointerEvents=0;fillColor=none;top=0;left=0;bottom=0;right=0;points=[[0,0.5],[1,0.5]];portConstraint=eastwest;" vertex="1" parent="EEsGFowfR6Ov2jE1rLwt-1">
          <mxGeometry y="60" width="180" height="30" as="geometry" />
        </mxCell>
        <mxCell id="EEsGFowfR6Ov2jE1rLwt-6" value="" style="shape=partialRectangle;connectable=0;fillColor=none;top=0;left=0;bottom=0;right=0;editable=1;overflow=hidden;" vertex="1" parent="EEsGFowfR6Ov2jE1rLwt-5">
          <mxGeometry width="30" height="30" as="geometry" />
        </mxCell>
        <mxCell id="EEsGFowfR6Ov2jE1rLwt-7" value="Sponsor_isim" style="shape=partialRectangle;connectable=0;fillColor=none;top=0;left=0;bottom=0;right=0;align=left;spacingLeft=6;overflow=hidden;" vertex="1" parent="EEsGFowfR6Ov2jE1rLwt-5">
          <mxGeometry x="30" width="150" height="30" as="geometry" />
        </mxCell>
        <mxCell id="EEsGFowfR6Ov2jE1rLwt-8" value="" style="shape=partialRectangle;collapsible=0;dropTarget=0;pointerEvents=0;fillColor=none;top=0;left=0;bottom=0;right=0;points=[[0,0.5],[1,0.5]];portConstraint=eastwest;" vertex="1" parent="EEsGFowfR6Ov2jE1rLwt-1">
          <mxGeometry y="90" width="180" height="30" as="geometry" />
        </mxCell>
        <mxCell id="EEsGFowfR6Ov2jE1rLwt-9" value="" style="shape=partialRectangle;connectable=0;fillColor=none;top=0;left=0;bottom=0;right=0;editable=1;overflow=hidden;" vertex="1" parent="EEsGFowfR6Ov2jE1rLwt-8">
          <mxGeometry width="30" height="30" as="geometry" />
        </mxCell>
        <mxCell id="EEsGFowfR6Ov2jE1rLwt-10" value="Sponsor_Bİlgileri" style="shape=partialRectangle;connectable=0;fillColor=none;top=0;left=0;bottom=0;right=0;align=left;spacingLeft=6;overflow=hidden;" vertex="1" parent="EEsGFowfR6Ov2jE1rLwt-8">
          <mxGeometry x="30" width="150" height="30" as="geometry" />
        </mxCell>
        <mxCell id="EEsGFowfR6Ov2jE1rLwt-11" value="" style="shape=partialRectangle;collapsible=0;dropTarget=0;pointerEvents=0;fillColor=none;top=0;left=0;bottom=0;right=0;points=[[0,0.5],[1,0.5]];portConstraint=eastwest;" vertex="1" parent="EEsGFowfR6Ov2jE1rLwt-1">
          <mxGeometry y="120" width="180" height="30" as="geometry" />
        </mxCell>
        <mxCell id="EEsGFowfR6Ov2jE1rLwt-12" value="" style="shape=partialRectangle;connectable=0;fillColor=none;top=0;left=0;bottom=0;right=0;editable=1;overflow=hidden;" vertex="1" parent="EEsGFowfR6Ov2jE1rLwt-11">
          <mxGeometry width="30" height="30" as="geometry" />
        </mxCell>
        <mxCell id="EEsGFowfR6Ov2jE1rLwt-13" value="Sponsor_resim_adresi" style="shape=partialRectangle;connectable=0;fillColor=none;top=0;left=0;bottom=0;right=0;align=left;spacingLeft=6;overflow=hidden;" vertex="1" parent="EEsGFowfR6Ov2jE1rLwt-11">
          <mxGeometry x="30" width="150" height="30" as="geometry" />
        </mxCell>
        <mxCell id="EEsGFowfR6Ov2jE1rLwt-15" value="GrupSohbet" style="shape=table;startSize=30;container=1;collapsible=1;childLayout=tableLayout;fixedRows=1;rowLines=0;fontStyle=1;align=center;resizeLast=1;" vertex="1" parent="1">
          <mxGeometry x="1180" y="70" width="180" height="150" as="geometry" />
        </mxCell>
        <mxCell id="EEsGFowfR6Ov2jE1rLwt-16" value="" style="shape=partialRectangle;collapsible=0;dropTarget=0;pointerEvents=0;fillColor=none;top=0;left=0;bottom=1;right=0;points=[[0,0.5],[1,0.5]];portConstraint=eastwest;" vertex="1" parent="EEsGFowfR6Ov2jE1rLwt-15">
          <mxGeometry y="30" width="180" height="30" as="geometry" />
        </mxCell>
        <mxCell id="EEsGFowfR6Ov2jE1rLwt-17" value="PK" style="shape=partialRectangle;connectable=0;fillColor=none;top=0;left=0;bottom=0;right=0;fontStyle=1;overflow=hidden;" vertex="1" parent="EEsGFowfR6Ov2jE1rLwt-16">
          <mxGeometry width="30" height="30" as="geometry" />
        </mxCell>
        <mxCell id="EEsGFowfR6Ov2jE1rLwt-18" value="Konusma_id" style="shape=partialRectangle;connectable=0;fillColor=none;top=0;left=0;bottom=0;right=0;align=left;spacingLeft=6;fontStyle=5;overflow=hidden;" vertex="1" parent="EEsGFowfR6Ov2jE1rLwt-16">
          <mxGeometry x="30" width="150" height="30" as="geometry" />
        </mxCell>
        <mxCell id="EEsGFowfR6Ov2jE1rLwt-19" value="" style="shape=partialRectangle;collapsible=0;dropTarget=0;pointerEvents=0;fillColor=none;top=0;left=0;bottom=0;right=0;points=[[0,0.5],[1,0.5]];portConstraint=eastwest;" vertex="1" parent="EEsGFowfR6Ov2jE1rLwt-15">
          <mxGeometry y="60" width="180" height="30" as="geometry" />
        </mxCell>
        <mxCell id="EEsGFowfR6Ov2jE1rLwt-20" value="FK" style="shape=partialRectangle;connectable=0;fillColor=none;top=0;left=0;bottom=0;right=0;editable=1;overflow=hidden;" vertex="1" parent="EEsGFowfR6Ov2jE1rLwt-19">
          <mxGeometry width="30" height="30" as="geometry" />
        </mxCell>
        <mxCell id="EEsGFowfR6Ov2jE1rLwt-21" value="kullanıcı_id" style="shape=partialRectangle;connectable=0;fillColor=none;top=0;left=0;bottom=0;right=0;align=left;spacingLeft=6;overflow=hidden;" vertex="1" parent="EEsGFowfR6Ov2jE1rLwt-19">
          <mxGeometry x="30" width="150" height="30" as="geometry" />
        </mxCell>
        <mxCell id="EEsGFowfR6Ov2jE1rLwt-22" value="" style="shape=partialRectangle;collapsible=0;dropTarget=0;pointerEvents=0;fillColor=none;top=0;left=0;bottom=0;right=0;points=[[0,0.5],[1,0.5]];portConstraint=eastwest;" vertex="1" parent="EEsGFowfR6Ov2jE1rLwt-15">
          <mxGeometry y="90" width="180" height="30" as="geometry" />
        </mxCell>
        <mxCell id="EEsGFowfR6Ov2jE1rLwt-23" value="" style="shape=partialRectangle;connectable=0;fillColor=none;top=0;left=0;bottom=0;right=0;editable=1;overflow=hidden;" vertex="1" parent="EEsGFowfR6Ov2jE1rLwt-22">
          <mxGeometry width="30" height="30" as="geometry" />
        </mxCell>
        <mxCell id="EEsGFowfR6Ov2jE1rLwt-24" value="icreik" style="shape=partialRectangle;connectable=0;fillColor=none;top=0;left=0;bottom=0;right=0;align=left;spacingLeft=6;overflow=hidden;" vertex="1" parent="EEsGFowfR6Ov2jE1rLwt-22">
          <mxGeometry x="30" width="150" height="30" as="geometry" />
        </mxCell>
        <mxCell id="EEsGFowfR6Ov2jE1rLwt-25" value="" style="shape=partialRectangle;collapsible=0;dropTarget=0;pointerEvents=0;fillColor=none;top=0;left=0;bottom=0;right=0;points=[[0,0.5],[1,0.5]];portConstraint=eastwest;" vertex="1" parent="EEsGFowfR6Ov2jE1rLwt-15">
          <mxGeometry y="120" width="180" height="30" as="geometry" />
        </mxCell>
        <mxCell id="EEsGFowfR6Ov2jE1rLwt-26" value="" style="shape=partialRectangle;connectable=0;fillColor=none;top=0;left=0;bottom=0;right=0;editable=1;overflow=hidden;" vertex="1" parent="EEsGFowfR6Ov2jE1rLwt-25">
          <mxGeometry width="30" height="30" as="geometry" />
        </mxCell>
        <mxCell id="EEsGFowfR6Ov2jE1rLwt-27" value="zaman" style="shape=partialRectangle;connectable=0;fillColor=none;top=0;left=0;bottom=0;right=0;align=left;spacingLeft=6;overflow=hidden;" vertex="1" parent="EEsGFowfR6Ov2jE1rLwt-25">
          <mxGeometry x="30" width="150" height="30" as="geometry" />
        </mxCell>
        <mxCell id="EEsGFowfR6Ov2jE1rLwt-90" style="edgeStyle=orthogonalEdgeStyle;rounded=0;orthogonalLoop=1;jettySize=auto;html=1;entryX=1;entryY=0.5;entryDx=0;entryDy=0;" edge="1" parent="1" source="EEsGFowfR6Ov2jE1rLwt-81" target="KGLhSe_-rWA2zhMxa89J-37">
          <mxGeometry relative="1" as="geometry" />
        </mxCell>
        <mxCell id="EEsGFowfR6Ov2jE1rLwt-112" value="" style="group" vertex="1" connectable="0" parent="1">
          <mxGeometry x="940" y="310" width="180" height="230" as="geometry" />
        </mxCell>
        <mxCell id="EEsGFowfR6Ov2jE1rLwt-77" value="İlçeler" style="shape=table;startSize=30;container=1;collapsible=1;childLayout=tableLayout;fixedRows=1;rowLines=0;fontStyle=1;align=center;resizeLast=1;" vertex="1" parent="EEsGFowfR6Ov2jE1rLwt-112">
          <mxGeometry width="180" height="230" as="geometry" />
        </mxCell>
        <mxCell id="EEsGFowfR6Ov2jE1rLwt-78" value="" style="shape=partialRectangle;collapsible=0;dropTarget=0;pointerEvents=0;fillColor=none;top=0;left=0;bottom=1;right=0;points=[[0,0.5],[1,0.5]];portConstraint=eastwest;" vertex="1" parent="EEsGFowfR6Ov2jE1rLwt-77">
          <mxGeometry y="30" width="180" height="30" as="geometry" />
        </mxCell>
        <mxCell id="EEsGFowfR6Ov2jE1rLwt-79" value="PK" style="shape=partialRectangle;connectable=0;fillColor=none;top=0;left=0;bottom=0;right=0;fontStyle=1;overflow=hidden;" vertex="1" parent="EEsGFowfR6Ov2jE1rLwt-78">
          <mxGeometry width="30" height="30" as="geometry" />
        </mxCell>
        <mxCell id="EEsGFowfR6Ov2jE1rLwt-80" value="ilçe_id" style="shape=partialRectangle;connectable=0;fillColor=none;top=0;left=0;bottom=0;right=0;align=left;spacingLeft=6;fontStyle=5;overflow=hidden;" vertex="1" parent="EEsGFowfR6Ov2jE1rLwt-78">
          <mxGeometry x="30" width="150" height="30" as="geometry" />
        </mxCell>
        <mxCell id="EEsGFowfR6Ov2jE1rLwt-84" value="" style="shape=partialRectangle;collapsible=0;dropTarget=0;pointerEvents=0;fillColor=none;top=0;left=0;bottom=0;right=0;points=[[0,0.5],[1,0.5]];portConstraint=eastwest;" vertex="1" parent="EEsGFowfR6Ov2jE1rLwt-77">
          <mxGeometry y="60" width="180" height="30" as="geometry" />
        </mxCell>
        <mxCell id="EEsGFowfR6Ov2jE1rLwt-85" value="" style="shape=partialRectangle;connectable=0;fillColor=none;top=0;left=0;bottom=0;right=0;editable=1;overflow=hidden;" vertex="1" parent="EEsGFowfR6Ov2jE1rLwt-84">
          <mxGeometry width="30" height="30" as="geometry" />
        </mxCell>
        <mxCell id="EEsGFowfR6Ov2jE1rLwt-86" value="ilçe_ismi" style="shape=partialRectangle;connectable=0;fillColor=none;top=0;left=0;bottom=0;right=0;align=left;spacingLeft=6;overflow=hidden;" vertex="1" parent="EEsGFowfR6Ov2jE1rLwt-84">
          <mxGeometry x="30" width="150" height="30" as="geometry" />
        </mxCell>
        <mxCell id="EEsGFowfR6Ov2jE1rLwt-81" value="" style="shape=partialRectangle;collapsible=0;dropTarget=0;pointerEvents=0;fillColor=none;top=0;left=0;bottom=0;right=0;points=[[0,0.5],[1,0.5]];portConstraint=eastwest;" vertex="1" parent="EEsGFowfR6Ov2jE1rLwt-77">
          <mxGeometry y="90" width="180" height="30" as="geometry" />
        </mxCell>
        <mxCell id="EEsGFowfR6Ov2jE1rLwt-82" value="FK" style="shape=partialRectangle;connectable=0;fillColor=none;top=0;left=0;bottom=0;right=0;editable=1;overflow=hidden;" vertex="1" parent="EEsGFowfR6Ov2jE1rLwt-81">
          <mxGeometry width="30" height="30" as="geometry" />
        </mxCell>
        <mxCell id="EEsGFowfR6Ov2jE1rLwt-83" value="şehir_id" style="shape=partialRectangle;connectable=0;fillColor=none;top=0;left=0;bottom=0;right=0;align=left;spacingLeft=6;overflow=hidden;" vertex="1" parent="EEsGFowfR6Ov2jE1rLwt-81">
          <mxGeometry x="30" width="150" height="30" as="geometry" />
        </mxCell>
        <mxCell id="EEsGFowfR6Ov2jE1rLwt-87" value="" style="shape=partialRectangle;collapsible=0;dropTarget=0;pointerEvents=0;fillColor=none;top=0;left=0;bottom=0;right=0;points=[[0,0.5],[1,0.5]];portConstraint=eastwest;" vertex="1" parent="EEsGFowfR6Ov2jE1rLwt-77">
          <mxGeometry y="120" width="180" height="30" as="geometry" />
        </mxCell>
        <mxCell id="EEsGFowfR6Ov2jE1rLwt-88" value="" style="shape=partialRectangle;connectable=0;fillColor=none;top=0;left=0;bottom=0;right=0;editable=1;overflow=hidden;" vertex="1" parent="EEsGFowfR6Ov2jE1rLwt-87">
          <mxGeometry width="30" height="30" as="geometry" />
        </mxCell>
        <mxCell id="EEsGFowfR6Ov2jE1rLwt-89" value="Mahelle" style="shape=partialRectangle;connectable=0;fillColor=none;top=0;left=0;bottom=0;right=0;align=left;spacingLeft=6;overflow=hidden;" vertex="1" parent="EEsGFowfR6Ov2jE1rLwt-87">
          <mxGeometry x="30" width="150" height="30" as="geometry" />
        </mxCell>
        <mxCell id="EEsGFowfR6Ov2jE1rLwt-94" value="Sokak" style="shape=partialRectangle;connectable=0;fillColor=none;top=0;left=0;bottom=0;right=0;align=left;spacingLeft=6;overflow=hidden;" vertex="1" parent="EEsGFowfR6Ov2jE1rLwt-112">
          <mxGeometry x="30" y="150" width="150" height="30" as="geometry" />
        </mxCell>
        <mxCell id="EEsGFowfR6Ov2jE1rLwt-113" style="edgeStyle=orthogonalEdgeStyle;rounded=0;orthogonalLoop=1;jettySize=auto;html=1;exitX=1;exitY=0.5;exitDx=0;exitDy=0;entryX=1;entryY=0.5;entryDx=0;entryDy=0;" edge="1" parent="1" source="EEsGFowfR6Ov2jE1rLwt-106" target="EEsGFowfR6Ov2jE1rLwt-78">
          <mxGeometry relative="1" as="geometry" />
        </mxCell>
        <mxCell id="EEsGFowfR6Ov2jE1rLwt-114" value="Sokaklar" style="shape=table;startSize=30;container=1;collapsible=1;childLayout=tableLayout;fixedRows=1;rowLines=0;fontStyle=1;align=center;resizeLast=1;" vertex="1" parent="1">
          <mxGeometry x="480" y="390" width="180" height="160" as="geometry" />
        </mxCell>
        <mxCell id="EEsGFowfR6Ov2jE1rLwt-115" value="" style="shape=partialRectangle;collapsible=0;dropTarget=0;pointerEvents=0;fillColor=none;top=0;left=0;bottom=1;right=0;points=[[0,0.5],[1,0.5]];portConstraint=eastwest;" vertex="1" parent="EEsGFowfR6Ov2jE1rLwt-114">
          <mxGeometry y="30" width="180" height="30" as="geometry" />
        </mxCell>
        <mxCell id="EEsGFowfR6Ov2jE1rLwt-116" value="PK" style="shape=partialRectangle;connectable=0;fillColor=none;top=0;left=0;bottom=0;right=0;fontStyle=1;overflow=hidden;" vertex="1" parent="EEsGFowfR6Ov2jE1rLwt-115">
          <mxGeometry width="30" height="30" as="geometry" />
        </mxCell>
        <mxCell id="EEsGFowfR6Ov2jE1rLwt-117" value="Sokak_id" style="shape=partialRectangle;connectable=0;fillColor=none;top=0;left=0;bottom=0;right=0;align=left;spacingLeft=6;fontStyle=5;overflow=hidden;" vertex="1" parent="EEsGFowfR6Ov2jE1rLwt-115">
          <mxGeometry x="30" width="150" height="30" as="geometry" />
        </mxCell>
        <mxCell id="EEsGFowfR6Ov2jE1rLwt-118" value="" style="shape=partialRectangle;collapsible=0;dropTarget=0;pointerEvents=0;fillColor=none;top=0;left=0;bottom=0;right=0;points=[[0,0.5],[1,0.5]];portConstraint=eastwest;" vertex="1" parent="EEsGFowfR6Ov2jE1rLwt-114">
          <mxGeometry y="60" width="180" height="30" as="geometry" />
        </mxCell>
        <mxCell id="EEsGFowfR6Ov2jE1rLwt-119" value="" style="shape=partialRectangle;connectable=0;fillColor=none;top=0;left=0;bottom=0;right=0;editable=1;overflow=hidden;" vertex="1" parent="EEsGFowfR6Ov2jE1rLwt-118">
          <mxGeometry width="30" height="30" as="geometry" />
        </mxCell>
        <mxCell id="EEsGFowfR6Ov2jE1rLwt-120" value="Sokak_ismi" style="shape=partialRectangle;connectable=0;fillColor=none;top=0;left=0;bottom=0;right=0;align=left;spacingLeft=6;overflow=hidden;" vertex="1" parent="EEsGFowfR6Ov2jE1rLwt-118">
          <mxGeometry x="30" width="150" height="30" as="geometry" />
        </mxCell>
        <mxCell id="EEsGFowfR6Ov2jE1rLwt-121" value="" style="shape=partialRectangle;collapsible=0;dropTarget=0;pointerEvents=0;fillColor=none;top=0;left=0;bottom=0;right=0;points=[[0,0.5],[1,0.5]];portConstraint=eastwest;" vertex="1" parent="EEsGFowfR6Ov2jE1rLwt-114">
          <mxGeometry y="90" width="180" height="30" as="geometry" />
        </mxCell>
        <mxCell id="EEsGFowfR6Ov2jE1rLwt-122" value="FK" style="shape=partialRectangle;connectable=0;fillColor=none;top=0;left=0;bottom=0;right=0;editable=1;overflow=hidden;" vertex="1" parent="EEsGFowfR6Ov2jE1rLwt-121">
          <mxGeometry width="30" height="30" as="geometry" />
        </mxCell>
        <mxCell id="EEsGFowfR6Ov2jE1rLwt-123" value="Mahalle_id" style="shape=partialRectangle;connectable=0;fillColor=none;top=0;left=0;bottom=0;right=0;align=left;spacingLeft=6;overflow=hidden;" vertex="1" parent="EEsGFowfR6Ov2jE1rLwt-121">
          <mxGeometry x="30" width="150" height="30" as="geometry" />
        </mxCell>
        <mxCell id="EEsGFowfR6Ov2jE1rLwt-124" value="" style="shape=partialRectangle;collapsible=0;dropTarget=0;pointerEvents=0;fillColor=none;top=0;left=0;bottom=0;right=0;points=[[0,0.5],[1,0.5]];portConstraint=eastwest;" vertex="1" parent="EEsGFowfR6Ov2jE1rLwt-114">
          <mxGeometry y="120" width="180" height="30" as="geometry" />
        </mxCell>
        <mxCell id="EEsGFowfR6Ov2jE1rLwt-125" value="FK" style="shape=partialRectangle;connectable=0;fillColor=none;top=0;left=0;bottom=0;right=0;editable=1;overflow=hidden;" vertex="1" parent="EEsGFowfR6Ov2jE1rLwt-124">
          <mxGeometry width="30" height="30" as="geometry" />
        </mxCell>
        <mxCell id="EEsGFowfR6Ov2jE1rLwt-126" value="Grup_id" style="shape=partialRectangle;connectable=0;fillColor=none;top=0;left=0;bottom=0;right=0;align=left;spacingLeft=6;overflow=hidden;" vertex="1" parent="EEsGFowfR6Ov2jE1rLwt-124">
          <mxGeometry x="30" width="150" height="30" as="geometry" />
        </mxCell>
        <mxCell id="EEsGFowfR6Ov2jE1rLwt-128" style="edgeStyle=orthogonalEdgeStyle;rounded=0;orthogonalLoop=1;jettySize=auto;html=1;entryX=0;entryY=0.5;entryDx=0;entryDy=0;" edge="1" parent="1" source="EEsGFowfR6Ov2jE1rLwt-121" target="EEsGFowfR6Ov2jE1rLwt-100">
          <mxGeometry relative="1" as="geometry" />
        </mxCell>
        <mxCell id="EEsGFowfR6Ov2jE1rLwt-130" style="edgeStyle=orthogonalEdgeStyle;rounded=0;orthogonalLoop=1;jettySize=auto;html=1;exitX=0;exitY=0.5;exitDx=0;exitDy=0;entryX=1;entryY=0.5;entryDx=0;entryDy=0;" edge="1" parent="1" source="EEsGFowfR6Ov2jE1rLwt-124" target="KGLhSe_-rWA2zhMxa89J-50">
          <mxGeometry relative="1" as="geometry" />
        </mxCell>
        <mxCell id="EEsGFowfR6Ov2jE1rLwt-135" value="" style="group" vertex="1" connectable="0" parent="1">
          <mxGeometry x="170" y="880" width="180" height="210" as="geometry" />
        </mxCell>
        <mxCell id="KGLhSe_-rWA2zhMxa89J-49" value="Gruplar" style="shape=table;startSize=30;container=1;collapsible=1;childLayout=tableLayout;fixedRows=1;rowLines=0;fontStyle=1;align=center;resizeLast=1;" parent="EEsGFowfR6Ov2jE1rLwt-135" vertex="1">
          <mxGeometry width="180" height="210" as="geometry" />
        </mxCell>
        <mxCell id="KGLhSe_-rWA2zhMxa89J-50" value="" style="shape=partialRectangle;collapsible=0;dropTarget=0;pointerEvents=0;fillColor=none;top=0;left=0;bottom=1;right=0;points=[[0,0.5],[1,0.5]];portConstraint=eastwest;" parent="KGLhSe_-rWA2zhMxa89J-49" vertex="1">
          <mxGeometry y="30" width="180" height="30" as="geometry" />
        </mxCell>
        <mxCell id="KGLhSe_-rWA2zhMxa89J-51" value="PK" style="shape=partialRectangle;connectable=0;fillColor=none;top=0;left=0;bottom=0;right=0;fontStyle=1;overflow=hidden;" parent="KGLhSe_-rWA2zhMxa89J-50" vertex="1">
          <mxGeometry width="30" height="30" as="geometry" />
        </mxCell>
        <mxCell id="KGLhSe_-rWA2zhMxa89J-52" value="Grup_id" style="shape=partialRectangle;connectable=0;fillColor=none;top=0;left=0;bottom=0;right=0;align=left;spacingLeft=6;fontStyle=5;overflow=hidden;" parent="KGLhSe_-rWA2zhMxa89J-50" vertex="1">
          <mxGeometry x="30" width="150" height="30" as="geometry" />
        </mxCell>
        <mxCell id="KGLhSe_-rWA2zhMxa89J-53" value="" style="shape=partialRectangle;collapsible=0;dropTarget=0;pointerEvents=0;fillColor=none;top=0;left=0;bottom=0;right=0;points=[[0,0.5],[1,0.5]];portConstraint=eastwest;" parent="KGLhSe_-rWA2zhMxa89J-49" vertex="1">
          <mxGeometry y="60" width="180" height="30" as="geometry" />
        </mxCell>
        <mxCell id="KGLhSe_-rWA2zhMxa89J-54" value="" style="shape=partialRectangle;connectable=0;fillColor=none;top=0;left=0;bottom=0;right=0;editable=1;overflow=hidden;" parent="KGLhSe_-rWA2zhMxa89J-53" vertex="1">
          <mxGeometry width="30" height="30" as="geometry" />
        </mxCell>
        <mxCell id="KGLhSe_-rWA2zhMxa89J-55" value="grup_isim" style="shape=partialRectangle;connectable=0;fillColor=none;top=0;left=0;bottom=0;right=0;align=left;spacingLeft=6;overflow=hidden;" parent="KGLhSe_-rWA2zhMxa89J-53" vertex="1">
          <mxGeometry x="30" width="150" height="30" as="geometry" />
        </mxCell>
        <mxCell id="KGLhSe_-rWA2zhMxa89J-56" value="" style="shape=partialRectangle;collapsible=0;dropTarget=0;pointerEvents=0;fillColor=none;top=0;left=0;bottom=0;right=0;points=[[0,0.5],[1,0.5]];portConstraint=eastwest;" parent="KGLhSe_-rWA2zhMxa89J-49" vertex="1">
          <mxGeometry y="90" width="180" height="30" as="geometry" />
        </mxCell>
        <mxCell id="KGLhSe_-rWA2zhMxa89J-57" value="" style="shape=partialRectangle;connectable=0;fillColor=none;top=0;left=0;bottom=0;right=0;editable=1;overflow=hidden;" parent="KGLhSe_-rWA2zhMxa89J-56" vertex="1">
          <mxGeometry width="30" height="30" as="geometry" />
        </mxCell>
        <mxCell id="KGLhSe_-rWA2zhMxa89J-58" value="grup_kişi_sayısı" style="shape=partialRectangle;connectable=0;fillColor=none;top=0;left=0;bottom=0;right=0;align=left;spacingLeft=6;overflow=hidden;" parent="KGLhSe_-rWA2zhMxa89J-56" vertex="1">
          <mxGeometry x="30" width="150" height="30" as="geometry" />
        </mxCell>
        <mxCell id="KGLhSe_-rWA2zhMxa89J-59" value="" style="shape=partialRectangle;collapsible=0;dropTarget=0;pointerEvents=0;fillColor=none;top=0;left=0;bottom=0;right=0;points=[[0,0.5],[1,0.5]];portConstraint=eastwest;" parent="KGLhSe_-rWA2zhMxa89J-49" vertex="1">
          <mxGeometry y="120" width="180" height="30" as="geometry" />
        </mxCell>
        <mxCell id="KGLhSe_-rWA2zhMxa89J-60" value="" style="shape=partialRectangle;connectable=0;fillColor=none;top=0;left=0;bottom=0;right=0;editable=1;overflow=hidden;" parent="KGLhSe_-rWA2zhMxa89J-59" vertex="1">
          <mxGeometry width="30" height="30" as="geometry" />
        </mxCell>
        <mxCell id="KGLhSe_-rWA2zhMxa89J-61" value="grup_yöneticisi" style="shape=partialRectangle;connectable=0;fillColor=none;top=0;left=0;bottom=0;right=0;align=left;spacingLeft=6;overflow=hidden;" parent="KGLhSe_-rWA2zhMxa89J-59" vertex="1">
          <mxGeometry x="30" width="150" height="30" as="geometry" />
        </mxCell>
        <mxCell id="EEsGFowfR6Ov2jE1rLwt-136" value="" style="shape=partialRectangle;collapsible=0;dropTarget=0;pointerEvents=0;fillColor=none;top=0;left=0;bottom=0;right=0;points=[[0,0.5],[1,0.5]];portConstraint=eastwest;" vertex="1" parent="EEsGFowfR6Ov2jE1rLwt-135">
          <mxGeometry y="150" width="180" height="30" as="geometry" />
        </mxCell>
        <mxCell id="EEsGFowfR6Ov2jE1rLwt-137" value="FK" style="shape=partialRectangle;connectable=0;fillColor=none;top=0;left=0;bottom=0;right=0;editable=1;overflow=hidden;" vertex="1" parent="EEsGFowfR6Ov2jE1rLwt-136">
          <mxGeometry width="30" height="30" as="geometry" />
        </mxCell>
        <mxCell id="EEsGFowfR6Ov2jE1rLwt-138" value="Konusma_id" style="shape=partialRectangle;connectable=0;fillColor=none;top=0;left=0;bottom=0;right=0;align=left;spacingLeft=6;overflow=hidden;" vertex="1" parent="EEsGFowfR6Ov2jE1rLwt-136">
          <mxGeometry x="30" width="150" height="30" as="geometry" />
        </mxCell>
        <mxCell id="EEsGFowfR6Ov2jE1rLwt-159" value="" style="shape=partialRectangle;collapsible=0;dropTarget=0;pointerEvents=0;fillColor=none;top=0;left=0;bottom=0;right=0;points=[[0,0.5],[1,0.5]];portConstraint=eastwest;" vertex="1" parent="EEsGFowfR6Ov2jE1rLwt-135">
          <mxGeometry y="180" width="180" height="30" as="geometry" />
        </mxCell>
        <mxCell id="EEsGFowfR6Ov2jE1rLwt-160" value="FK" style="shape=partialRectangle;connectable=0;fillColor=none;top=0;left=0;bottom=0;right=0;editable=1;overflow=hidden;" vertex="1" parent="EEsGFowfR6Ov2jE1rLwt-159">
          <mxGeometry width="30" height="30" as="geometry" />
        </mxCell>
        <mxCell id="EEsGFowfR6Ov2jE1rLwt-161" value="Kullanıcı_id" style="shape=partialRectangle;connectable=0;fillColor=none;top=0;left=0;bottom=0;right=0;align=left;spacingLeft=6;overflow=hidden;" vertex="1" parent="EEsGFowfR6Ov2jE1rLwt-159">
          <mxGeometry x="30" width="150" height="30" as="geometry" />
        </mxCell>
        <mxCell id="EEsGFowfR6Ov2jE1rLwt-140" style="edgeStyle=orthogonalEdgeStyle;rounded=0;orthogonalLoop=1;jettySize=auto;html=1;exitX=0;exitY=0.5;exitDx=0;exitDy=0;entryX=0;entryY=0.5;entryDx=0;entryDy=0;" edge="1" parent="1" source="EEsGFowfR6Ov2jE1rLwt-136" target="EEsGFowfR6Ov2jE1rLwt-16">
          <mxGeometry relative="1" as="geometry" />
        </mxCell>
        <mxCell id="EEsGFowfR6Ov2jE1rLwt-154" value="" style="group" vertex="1" connectable="0" parent="1">
          <mxGeometry x="730" y="480" width="180" height="190" as="geometry" />
        </mxCell>
        <mxCell id="EEsGFowfR6Ov2jE1rLwt-99" value="Mahalleler" style="shape=table;startSize=30;container=1;collapsible=1;childLayout=tableLayout;fixedRows=1;rowLines=0;fontStyle=1;align=center;resizeLast=1;" vertex="1" parent="EEsGFowfR6Ov2jE1rLwt-154">
          <mxGeometry width="180" height="190" as="geometry" />
        </mxCell>
        <mxCell id="EEsGFowfR6Ov2jE1rLwt-100" value="" style="shape=partialRectangle;collapsible=0;dropTarget=0;pointerEvents=0;fillColor=none;top=0;left=0;bottom=1;right=0;points=[[0,0.5],[1,0.5]];portConstraint=eastwest;" vertex="1" parent="EEsGFowfR6Ov2jE1rLwt-99">
          <mxGeometry y="30" width="180" height="30" as="geometry" />
        </mxCell>
        <mxCell id="EEsGFowfR6Ov2jE1rLwt-101" value="PK" style="shape=partialRectangle;connectable=0;fillColor=none;top=0;left=0;bottom=0;right=0;fontStyle=1;overflow=hidden;" vertex="1" parent="EEsGFowfR6Ov2jE1rLwt-100">
          <mxGeometry width="30" height="30" as="geometry" />
        </mxCell>
        <mxCell id="EEsGFowfR6Ov2jE1rLwt-102" value="Mahelle_id" style="shape=partialRectangle;connectable=0;fillColor=none;top=0;left=0;bottom=0;right=0;align=left;spacingLeft=6;fontStyle=5;overflow=hidden;" vertex="1" parent="EEsGFowfR6Ov2jE1rLwt-100">
          <mxGeometry x="30" width="150" height="30" as="geometry" />
        </mxCell>
        <mxCell id="EEsGFowfR6Ov2jE1rLwt-103" value="" style="shape=partialRectangle;collapsible=0;dropTarget=0;pointerEvents=0;fillColor=none;top=0;left=0;bottom=0;right=0;points=[[0,0.5],[1,0.5]];portConstraint=eastwest;" vertex="1" parent="EEsGFowfR6Ov2jE1rLwt-99">
          <mxGeometry y="60" width="180" height="30" as="geometry" />
        </mxCell>
        <mxCell id="EEsGFowfR6Ov2jE1rLwt-104" value="" style="shape=partialRectangle;connectable=0;fillColor=none;top=0;left=0;bottom=0;right=0;editable=1;overflow=hidden;" vertex="1" parent="EEsGFowfR6Ov2jE1rLwt-103">
          <mxGeometry width="30" height="30" as="geometry" />
        </mxCell>
        <mxCell id="EEsGFowfR6Ov2jE1rLwt-105" value="Mahelle_ismi" style="shape=partialRectangle;connectable=0;fillColor=none;top=0;left=0;bottom=0;right=0;align=left;spacingLeft=6;overflow=hidden;" vertex="1" parent="EEsGFowfR6Ov2jE1rLwt-103">
          <mxGeometry x="30" width="150" height="30" as="geometry" />
        </mxCell>
        <mxCell id="EEsGFowfR6Ov2jE1rLwt-106" value="" style="shape=partialRectangle;collapsible=0;dropTarget=0;pointerEvents=0;fillColor=none;top=0;left=0;bottom=0;right=0;points=[[0,0.5],[1,0.5]];portConstraint=eastwest;" vertex="1" parent="EEsGFowfR6Ov2jE1rLwt-99">
          <mxGeometry y="90" width="180" height="30" as="geometry" />
        </mxCell>
        <mxCell id="EEsGFowfR6Ov2jE1rLwt-107" value="FK" style="shape=partialRectangle;connectable=0;fillColor=none;top=0;left=0;bottom=0;right=0;editable=1;overflow=hidden;" vertex="1" parent="EEsGFowfR6Ov2jE1rLwt-106">
          <mxGeometry width="30" height="30" as="geometry" />
        </mxCell>
        <mxCell id="EEsGFowfR6Ov2jE1rLwt-108" value="İlçe_id" style="shape=partialRectangle;connectable=0;fillColor=none;top=0;left=0;bottom=0;right=0;align=left;spacingLeft=6;overflow=hidden;" vertex="1" parent="EEsGFowfR6Ov2jE1rLwt-106">
          <mxGeometry x="30" width="150" height="30" as="geometry" />
        </mxCell>
        <mxCell id="EEsGFowfR6Ov2jE1rLwt-109" value="" style="shape=partialRectangle;collapsible=0;dropTarget=0;pointerEvents=0;fillColor=none;top=0;left=0;bottom=0;right=0;points=[[0,0.5],[1,0.5]];portConstraint=eastwest;" vertex="1" parent="EEsGFowfR6Ov2jE1rLwt-99">
          <mxGeometry y="120" width="180" height="30" as="geometry" />
        </mxCell>
        <mxCell id="EEsGFowfR6Ov2jE1rLwt-110" value="" style="shape=partialRectangle;connectable=0;fillColor=none;top=0;left=0;bottom=0;right=0;editable=1;overflow=hidden;" vertex="1" parent="EEsGFowfR6Ov2jE1rLwt-109">
          <mxGeometry width="30" height="30" as="geometry" />
        </mxCell>
        <mxCell id="EEsGFowfR6Ov2jE1rLwt-111" value="Sokak" style="shape=partialRectangle;connectable=0;fillColor=none;top=0;left=0;bottom=0;right=0;align=left;spacingLeft=6;overflow=hidden;" vertex="1" parent="EEsGFowfR6Ov2jE1rLwt-109">
          <mxGeometry x="30" width="150" height="30" as="geometry" />
        </mxCell>
        <mxCell id="EEsGFowfR6Ov2jE1rLwt-164" value="" style="shape=partialRectangle;collapsible=0;dropTarget=0;pointerEvents=0;fillColor=none;top=0;left=0;bottom=0;right=0;points=[[0,0.5],[1,0.5]];portConstraint=eastwest;" vertex="1" parent="EEsGFowfR6Ov2jE1rLwt-154">
          <mxGeometry y="150" width="180" height="30" as="geometry" />
        </mxCell>
        <mxCell id="EEsGFowfR6Ov2jE1rLwt-165" value="FK" style="shape=partialRectangle;connectable=0;fillColor=none;top=0;left=0;bottom=0;right=0;editable=1;overflow=hidden;" vertex="1" parent="EEsGFowfR6Ov2jE1rLwt-164">
          <mxGeometry width="30" height="30" as="geometry" />
        </mxCell>
        <mxCell id="EEsGFowfR6Ov2jE1rLwt-166" value="Sponsor_id" style="shape=partialRectangle;connectable=0;fillColor=none;top=0;left=0;bottom=0;right=0;align=left;spacingLeft=6;overflow=hidden;" vertex="1" parent="EEsGFowfR6Ov2jE1rLwt-164">
          <mxGeometry x="30" width="150" height="30" as="geometry" />
        </mxCell>
        <mxCell id="EEsGFowfR6Ov2jE1rLwt-162" style="edgeStyle=orthogonalEdgeStyle;rounded=0;orthogonalLoop=1;jettySize=auto;html=1;entryX=0;entryY=0.5;entryDx=0;entryDy=0;" edge="1" parent="1" source="EEsGFowfR6Ov2jE1rLwt-159" target="KGLhSe_-rWA2zhMxa89J-15">
          <mxGeometry relative="1" as="geometry" />
        </mxCell>
        <mxCell id="EEsGFowfR6Ov2jE1rLwt-168" style="edgeStyle=orthogonalEdgeStyle;rounded=0;orthogonalLoop=1;jettySize=auto;html=1;" edge="1" parent="1" source="EEsGFowfR6Ov2jE1rLwt-164" target="EEsGFowfR6Ov2jE1rLwt-2">
          <mxGeometry relative="1" as="geometry" />
        </mxCell>
        <mxCell id="EEsGFowfR6Ov2jE1rLwt-169" style="edgeStyle=orthogonalEdgeStyle;rounded=0;orthogonalLoop=1;jettySize=auto;html=1;exitX=1;exitY=0.5;exitDx=0;exitDy=0;entryX=1;entryY=0.5;entryDx=0;entryDy=0;" edge="1" parent="1" source="EEsGFowfR6Ov2jE1rLwt-19" target="KGLhSe_-rWA2zhMxa89J-15">
          <mxGeometry relative="1" as="geometry" />
        </mxCell>
        <mxCell id="EEsGFowfR6Ov2jE1rLwt-171" value="Hesap_Tipleri" style="shape=table;startSize=30;container=1;collapsible=1;childLayout=tableLayout;fixedRows=1;rowLines=0;fontStyle=1;align=center;resizeLast=1;" vertex="1" parent="1">
          <mxGeometry x="1310" y="980" width="180" height="160" as="geometry" />
        </mxCell>
        <mxCell id="EEsGFowfR6Ov2jE1rLwt-172" value="" style="shape=partialRectangle;collapsible=0;dropTarget=0;pointerEvents=0;fillColor=none;top=0;left=0;bottom=1;right=0;points=[[0,0.5],[1,0.5]];portConstraint=eastwest;" vertex="1" parent="EEsGFowfR6Ov2jE1rLwt-171">
          <mxGeometry y="30" width="180" height="30" as="geometry" />
        </mxCell>
        <mxCell id="EEsGFowfR6Ov2jE1rLwt-173" value="" style="shape=partialRectangle;connectable=0;fillColor=none;top=0;left=0;bottom=0;right=0;fontStyle=1;overflow=hidden;" vertex="1" parent="EEsGFowfR6Ov2jE1rLwt-172">
          <mxGeometry width="30" height="30" as="geometry" />
        </mxCell>
        <mxCell id="EEsGFowfR6Ov2jE1rLwt-174" value="Hesap_tipi_id" style="shape=partialRectangle;connectable=0;fillColor=none;top=0;left=0;bottom=0;right=0;align=left;spacingLeft=6;fontStyle=5;overflow=hidden;" vertex="1" parent="EEsGFowfR6Ov2jE1rLwt-172">
          <mxGeometry x="30" width="150" height="30" as="geometry" />
        </mxCell>
        <mxCell id="EEsGFowfR6Ov2jE1rLwt-175" value="" style="shape=partialRectangle;collapsible=0;dropTarget=0;pointerEvents=0;fillColor=none;top=0;left=0;bottom=0;right=0;points=[[0,0.5],[1,0.5]];portConstraint=eastwest;" vertex="1" parent="EEsGFowfR6Ov2jE1rLwt-171">
          <mxGeometry y="60" width="180" height="30" as="geometry" />
        </mxCell>
        <mxCell id="EEsGFowfR6Ov2jE1rLwt-176" value="" style="shape=partialRectangle;connectable=0;fillColor=none;top=0;left=0;bottom=0;right=0;editable=1;overflow=hidden;" vertex="1" parent="EEsGFowfR6Ov2jE1rLwt-175">
          <mxGeometry width="30" height="30" as="geometry" />
        </mxCell>
        <mxCell id="EEsGFowfR6Ov2jE1rLwt-177" value="Hesap_tipi" style="shape=partialRectangle;connectable=0;fillColor=none;top=0;left=0;bottom=0;right=0;align=left;spacingLeft=6;overflow=hidden;" vertex="1" parent="EEsGFowfR6Ov2jE1rLwt-175">
          <mxGeometry x="30" width="150" height="30" as="geometry" />
        </mxCell>
        <mxCell id="EEsGFowfR6Ov2jE1rLwt-178" value="" style="shape=partialRectangle;collapsible=0;dropTarget=0;pointerEvents=0;fillColor=none;top=0;left=0;bottom=0;right=0;points=[[0,0.5],[1,0.5]];portConstraint=eastwest;" vertex="1" parent="EEsGFowfR6Ov2jE1rLwt-171">
          <mxGeometry y="90" width="180" height="30" as="geometry" />
        </mxCell>
        <mxCell id="EEsGFowfR6Ov2jE1rLwt-179" value="" style="shape=partialRectangle;connectable=0;fillColor=none;top=0;left=0;bottom=0;right=0;editable=1;overflow=hidden;" vertex="1" parent="EEsGFowfR6Ov2jE1rLwt-178">
          <mxGeometry width="30" height="30" as="geometry" />
        </mxCell>
        <mxCell id="EEsGFowfR6Ov2jE1rLwt-180" value="kullanıcı_id" style="shape=partialRectangle;connectable=0;fillColor=none;top=0;left=0;bottom=0;right=0;align=left;spacingLeft=6;overflow=hidden;" vertex="1" parent="EEsGFowfR6Ov2jE1rLwt-178">
          <mxGeometry x="30" width="150" height="30" as="geometry" />
        </mxCell>
        <mxCell id="EEsGFowfR6Ov2jE1rLwt-181" value="" style="shape=partialRectangle;collapsible=0;dropTarget=0;pointerEvents=0;fillColor=none;top=0;left=0;bottom=0;right=0;points=[[0,0.5],[1,0.5]];portConstraint=eastwest;" vertex="1" parent="EEsGFowfR6Ov2jE1rLwt-171">
          <mxGeometry y="120" width="180" height="30" as="geometry" />
        </mxCell>
        <mxCell id="EEsGFowfR6Ov2jE1rLwt-182" value="" style="shape=partialRectangle;connectable=0;fillColor=none;top=0;left=0;bottom=0;right=0;editable=1;overflow=hidden;" vertex="1" parent="EEsGFowfR6Ov2jE1rLwt-181">
          <mxGeometry width="30" height="30" as="geometry" />
        </mxCell>
        <mxCell id="EEsGFowfR6Ov2jE1rLwt-183" value="" style="shape=partialRectangle;connectable=0;fillColor=none;top=0;left=0;bottom=0;right=0;align=left;spacingLeft=6;overflow=hidden;" vertex="1" parent="EEsGFowfR6Ov2jE1rLwt-181">
          <mxGeometry x="30" width="150" height="30" as="geometry" />
        </mxCell>
        <mxCell id="EEsGFowfR6Ov2jE1rLwt-184" value="GirişEkranı" style="shape=table;startSize=30;container=1;collapsible=1;childLayout=tableLayout;fixedRows=1;rowLines=0;fontStyle=1;align=center;resizeLast=1;" vertex="1" parent="1">
          <mxGeometry x="1380" y="780" width="180" height="160" as="geometry" />
        </mxCell>
        <mxCell id="EEsGFowfR6Ov2jE1rLwt-185" value="" style="shape=partialRectangle;collapsible=0;dropTarget=0;pointerEvents=0;fillColor=none;top=0;left=0;bottom=1;right=0;points=[[0,0.5],[1,0.5]];portConstraint=eastwest;" vertex="1" parent="EEsGFowfR6Ov2jE1rLwt-184">
          <mxGeometry y="30" width="180" height="30" as="geometry" />
        </mxCell>
        <mxCell id="EEsGFowfR6Ov2jE1rLwt-186" value="PK" style="shape=partialRectangle;connectable=0;fillColor=none;top=0;left=0;bottom=0;right=0;fontStyle=1;overflow=hidden;" vertex="1" parent="EEsGFowfR6Ov2jE1rLwt-185">
          <mxGeometry width="30" height="30" as="geometry" />
        </mxCell>
        <mxCell id="EEsGFowfR6Ov2jE1rLwt-187" value="Kullanıcı_id" style="shape=partialRectangle;connectable=0;fillColor=none;top=0;left=0;bottom=0;right=0;align=left;spacingLeft=6;fontStyle=5;overflow=hidden;" vertex="1" parent="EEsGFowfR6Ov2jE1rLwt-185">
          <mxGeometry x="30" width="150" height="30" as="geometry" />
        </mxCell>
        <mxCell id="EEsGFowfR6Ov2jE1rLwt-188" value="" style="shape=partialRectangle;collapsible=0;dropTarget=0;pointerEvents=0;fillColor=none;top=0;left=0;bottom=0;right=0;points=[[0,0.5],[1,0.5]];portConstraint=eastwest;" vertex="1" parent="EEsGFowfR6Ov2jE1rLwt-184">
          <mxGeometry y="60" width="180" height="30" as="geometry" />
        </mxCell>
        <mxCell id="EEsGFowfR6Ov2jE1rLwt-189" value="" style="shape=partialRectangle;connectable=0;fillColor=none;top=0;left=0;bottom=0;right=0;editable=1;overflow=hidden;" vertex="1" parent="EEsGFowfR6Ov2jE1rLwt-188">
          <mxGeometry width="30" height="30" as="geometry" />
        </mxCell>
        <mxCell id="EEsGFowfR6Ov2jE1rLwt-190" value="Eposta" style="shape=partialRectangle;connectable=0;fillColor=none;top=0;left=0;bottom=0;right=0;align=left;spacingLeft=6;overflow=hidden;" vertex="1" parent="EEsGFowfR6Ov2jE1rLwt-188">
          <mxGeometry x="30" width="150" height="30" as="geometry" />
        </mxCell>
        <mxCell id="EEsGFowfR6Ov2jE1rLwt-191" value="" style="shape=partialRectangle;collapsible=0;dropTarget=0;pointerEvents=0;fillColor=none;top=0;left=0;bottom=0;right=0;points=[[0,0.5],[1,0.5]];portConstraint=eastwest;" vertex="1" parent="EEsGFowfR6Ov2jE1rLwt-184">
          <mxGeometry y="90" width="180" height="30" as="geometry" />
        </mxCell>
        <mxCell id="EEsGFowfR6Ov2jE1rLwt-192" value="" style="shape=partialRectangle;connectable=0;fillColor=none;top=0;left=0;bottom=0;right=0;editable=1;overflow=hidden;" vertex="1" parent="EEsGFowfR6Ov2jE1rLwt-191">
          <mxGeometry width="30" height="30" as="geometry" />
        </mxCell>
        <mxCell id="EEsGFowfR6Ov2jE1rLwt-193" value="Şifre" style="shape=partialRectangle;connectable=0;fillColor=none;top=0;left=0;bottom=0;right=0;align=left;spacingLeft=6;overflow=hidden;" vertex="1" parent="EEsGFowfR6Ov2jE1rLwt-191">
          <mxGeometry x="30" width="150" height="30" as="geometry" />
        </mxCell>
        <mxCell id="EEsGFowfR6Ov2jE1rLwt-194" value="" style="shape=partialRectangle;collapsible=0;dropTarget=0;pointerEvents=0;fillColor=none;top=0;left=0;bottom=0;right=0;points=[[0,0.5],[1,0.5]];portConstraint=eastwest;" vertex="1" parent="EEsGFowfR6Ov2jE1rLwt-184">
          <mxGeometry y="120" width="180" height="30" as="geometry" />
        </mxCell>
        <mxCell id="EEsGFowfR6Ov2jE1rLwt-195" value="" style="shape=partialRectangle;connectable=0;fillColor=none;top=0;left=0;bottom=0;right=0;editable=1;overflow=hidden;" vertex="1" parent="EEsGFowfR6Ov2jE1rLwt-194">
          <mxGeometry width="30" height="30" as="geometry" />
        </mxCell>
        <mxCell id="EEsGFowfR6Ov2jE1rLwt-196" value="" style="shape=partialRectangle;connectable=0;fillColor=none;top=0;left=0;bottom=0;right=0;align=left;spacingLeft=6;overflow=hidden;" vertex="1" parent="EEsGFowfR6Ov2jE1rLwt-194">
          <mxGeometry x="30" width="150" height="30" as="geometry" />
        </mxCell>
        <mxCell id="EEsGFowfR6Ov2jE1rLwt-199" style="edgeStyle=orthogonalEdgeStyle;rounded=0;orthogonalLoop=1;jettySize=auto;html=1;exitX=0;exitY=0.5;exitDx=0;exitDy=0;entryX=1.009;entryY=0.854;entryDx=0;entryDy=0;entryPerimeter=0;" edge="1" parent="1" source="EEsGFowfR6Ov2jE1rLwt-185" target="KGLhSe_-rWA2zhMxa89J-15">
          <mxGeometry relative="1" as="geometry" />
        </mxCell>
        <mxCell id="EEsGFowfR6Ov2jE1rLwt-204" style="edgeStyle=orthogonalEdgeStyle;rounded=0;orthogonalLoop=1;jettySize=auto;html=1;exitX=0;exitY=0.5;exitDx=0;exitDy=0;" edge="1" parent="1" source="EEsGFowfR6Ov2jE1rLwt-172">
          <mxGeometry relative="1" as="geometry">
            <mxPoint x="1150" y="960" as="targetPoint" />
            <Array as="points">
              <mxPoint x="1250" y="1025" />
              <mxPoint x="1250" y="960" />
            </Array>
          </mxGeometry>
        </mxCell>
      </root>
    </mxGraphModel>
  </diagram>
</mxfile>
